<svg xmlns="http://www.w3.org/2000/svg" width="32" height="32" viewBox="0 0 32 32" fill="none">
<path fill-rule="evenodd" clip-rule="evenodd" d="M10 3L5.02857 6L0 3L4.97143 0L10 3Z" transform="translate(9)" fill="#CB181F"/>
<path fill-rule="evenodd" clip-rule="evenodd" d="M5 0V5.98026L0 9V3.01974L5 0Z" transform="translate(14 3)" fill="#B6161C"/>
<path fill-rule="evenodd" clip-rule="evenodd" d="M5 3.01974V9L0 5.98026L0.0561798 0L5 3.01974Z" transform="translate(9 3)" fill="#7F0F13"/>
<path fill-rule="evenodd" clip-rule="evenodd" d="M10 3L5 6L0 3L5 0L10 3Z" transform="translate(17 5)" fill="#CB181F"/>
<path fill-rule="evenodd" clip-rule="evenodd" d="M5 0V5.98026L0 9V3.01974L5 0Z" transform="translate(22 8)" fill="#B6161C"/>
<path fill-rule="evenodd" clip-rule="evenodd" d="M5 3.01974V9L0 5.98026V0L5 3.01974Z" transform="translate(17 8)" fill="#7F0F13"/>
<path fill-rule="evenodd" clip-rule="evenodd" d="M10 3L5 6L0 3L5 0L10 3Z" transform="translate(17 15)" fill="#CB181F"/>
<path fill-rule="evenodd" clip-rule="evenodd" d="M5 0V5.98026L0 9V3.01974L5 0Z" transform="translate(22 18)" fill="#B6161C"/>
<path fill-rule="evenodd" clip-rule="evenodd" d="M5 3.01974V9L0 5.98026V0L5 3.01974Z" transform="translate(17 18)" fill="#7F0F13"/>
<path fill-rule="evenodd" clip-rule="evenodd" d="M10 3L5.02857 6L0 3L4.97143 0L10 3Z" transform="translate(9 20)" fill="#CB181F"/>
<path fill-rule="evenodd" clip-rule="evenodd" d="M5 0V5.98026L0 9V3.01974L5 0Z" transform="translate(14 23)" fill="#B6161C"/>
<path fill-rule="evenodd" clip-rule="evenodd" d="M5 3.01974V9L0 5.98026L0.0561798 0L5 3.01974Z" transform="translate(9 23)" fill="#7F0F13"/>
<path fill-rule="evenodd" clip-rule="evenodd" d="M10 3L5 6L0 3L5 0L10 3Z" transform="translate(0 15)" fill="#CB181F"/>
<path fill-rule="evenodd" clip-rule="evenodd" d="M5 0V5.98026L0 9V3.01974L5 0Z" transform="translate(5 18)" fill="#B6161C"/>
<mask id="mask1" mask-type="alpha" maskUnits="userSpaceOnUse" x="0" y="18" width="5" height="9">
<path fill-rule="evenodd" clip-rule="evenodd" d="M0 0H4.88878V8.55H0V0Z" transform="translate(0 18.1687)" fill="white"/>
</mask>
<g mask="url(#mask1)">
<path fill-rule="evenodd" clip-rule="evenodd" d="M4.88889 2.86875V8.55L0 5.68125V0L4.88889 2.86875Z" transform="translate(-0.00012207 18.1687)" fill="#7F0F13"/>
</g>
<path fill-rule="evenodd" clip-rule="evenodd" d="M10 3L5.02857 6L0 3L4.97143 0L10 3Z" transform="translate(0 5)" fill="#CB181F"/>
<path fill-rule="evenodd" clip-rule="evenodd" d="M5 0V5.98026L0 9V3.01974L5 0Z" transform="translate(5 8)" fill="#B6161C"/>
<mask id="mask2" mask-type="alpha" maskUnits="userSpaceOnUse" x="0" y="8" width="5" height="9">
<path fill-rule="evenodd" clip-rule="evenodd" d="M0 0H4.94439V8.55H0V0Z" transform="translate(0 8.28125)" fill="white"/>
</mask>
<g mask="url(#mask2)">
<path fill-rule="evenodd" clip-rule="evenodd" d="M4.94444 2.86875V8.55L0 5.68125L0.0555556 0L4.94444 2.86875Z" transform="translate(0 8.28125)" fill="#7F0F13"/>
</g>
<path fill-rule="evenodd" clip-rule="evenodd" d="M5 9L0 5.98026V0L5 3.01974V9Z" transform="translate(9 3)" fill="#911A1D"/>
</svg>
